 http://www.imdb.com/title/tt1292569/


Celebrate the season will all your favorite Muppets in this heartwarming and hilarious holiday movie. Whoopi Goldberg, Uma Thurman, Nathan Lane and other sensational guest stars join our friends on a fun-filled Christmas adventure full of sidesplitting laughs and memorable music. When Gonzo forgets to mail three letters to Santa, he convinces Kermit and the gang to help him deliver the notes to the North Pole. Along the way, they discover that Christmas is the time to be with those you care about most, as they dash home to make a friend's Christmas wish come true. Bursting with bonus material and never-before-seen footage, A MUPPETS CHRISTMAS: LETTERS TO SANTA is hours of holiday fun for the entire family!


Format : MPEG-4
Format profile : Base Media / Version 2
Codec ID : mp42
File size : 698 MiB
Duration : 52mn 46s
Overall bit rate : 1 850 Kbps
Encoded date : UTC 2009-10-18 11:22:20
Tagged date : UTC 2009-10-18 14:41:20
Writing application : HandBrake 0.9.3 2008112300

Video
ID : 1
Format : AVC
Format/Info : Advanced Video Codec
Format profile : Main@L4.0
Format settings, CABAC : Yes
Format settings, ReFrames : 3 frames
Codec ID : avc1
Codec ID/Info : Advanced Video Coding
Duration : 52mn 46s
Bit rate mode : Variable
Bit rate : 1 686 Kbps
Width : 720 pixels
Height : 576 pixels
Display aspect ratio : 16:9
Frame rate mode : Variable
Frame rate : 25.000 fps
Minimum frame rate : 12.500 fps
Maximum frame rate : 631.579 fps
Standard : PAL
Resolution : 24 bits
Colorimetry : 4:2:0
Scan type : Progressive
Bits/(Pixel*Frame) : 0.163
Stream size : 636 MiB (91%)
Writing library : x264 core 65


Audio
ID : 2
Format : AAC
Format/Info : Advanced Audio Codec
Format version : Version 4
Format profile : LC
Format settings, SBR : No
Codec ID : 40
Duration : 52mn 46s
Bit rate mode : Variable
Bit rate : 160 Kbps
Maximum bit rate : 220 Kbps
Channel(s) : 2 channels
Channel positions : L R
Sampling rate : 48.0 KHz
Resolution : 16 bits
Stream size : 60.3 MiB (9%)
Language : English
Encoded date : UTC 2009-10-18 11:22:20
Tagged date : UTC 2009-10-18 14:41:12
